<svg width="26" height="26" viewBox="0 0 26 26" fill="none" xmlns="http://www.w3.org/2000/svg">
  <g clip-path="url(#clip0_14_824)">
    <path
      d="M18.4017 22.9586L18.0384 24.3983C16.9485 24.8153 16.078 25.1327 15.4297 25.351C14.7807 25.5699 14.0267 25.6788 13.1675 25.6788C11.8481 25.6788 10.8219 25.3654 10.09 24.7431C9.35805 24.1182 8.99197 23.3264 8.99197 22.3658C8.99197 21.994 9.01853 21.6115 9.07376 21.2218C9.12945 20.8317 9.218 20.3923 9.33917 19.9012L10.7012 15.2276C10.8224 14.7801 10.9254 14.356 11.0079 13.9551C11.0915 13.5566 11.1318 13.1899 11.1318 12.8599C11.1318 12.263 11.0044 11.8455 10.7506 11.6108C10.4968 11.3768 10.0126 11.2579 9.29373 11.2579C8.94164 11.2579 8.57975 11.3126 8.21088 11.4183C7.84037 11.5245 7.52369 11.6271 7.25781 11.7224L7.62203 10.2816C8.51427 9.92938 9.36714 9.62779 10.1829 9.37749C10.9988 9.1265 11.7696 9.0009 12.4987 9.0009C13.809 9.0009 14.8201 9.30791 15.5301 9.92192C16.2401 10.5364 16.595 11.3329 16.595 12.3145C16.595 12.5176 16.5717 12.8754 16.5216 13.3869C16.4727 13.8995 16.3816 14.3691 16.2488 14.7963L14.8926 19.4512C14.7814 19.825 14.6815 20.2525 14.5945 20.7334C14.5048 21.2112 14.4619 21.5763 14.4619 21.8212C14.4619 22.4392 14.6041 22.8612 14.8891 23.0856C15.1762 23.3099 15.6706 23.4215 16.373 23.4215C16.7027 23.4215 17.0779 23.3648 17.4947 23.2534C17.9105 23.142 18.2136 23.0442 18.4017 22.9586ZM18.7456 3.41623C18.7456 4.22724 18.4303 4.91988 17.7967 5.48939C17.1648 6.06094 16.4033 6.34693 15.5124 6.34693C14.6188 6.34693 13.8554 6.06094 13.2162 5.48939C12.5782 4.91965 12.2585 4.22724 12.2585 3.41623C12.2585 2.60681 12.5782 1.91304 13.2162 1.3363C13.8542 0.760463 14.619 0.472656 15.5124 0.472656C16.403 0.472656 17.1648 0.76114 17.7967 1.3363C18.4308 1.91304 18.7456 2.60703 18.7456 3.41623Z"
      fill="red" />
  </g>
  <defs>
    <clipPath id="clip0_14_824">
      <rect width="26" height="25.2061" fill="white" transform="translate(0 0.472656)" />
    </clipPath>
  </defs>
</svg>